<svg xmlns="http://www.w3.org/2000/svg" viewBox="0 0 338.59 340"><defs><style>.cls-1{fill:#231f20;}</style></defs><g id="Layer_2" data-name="Layer 2"><g id="Layer_2-2" data-name="Layer 2"><path class="cls-1" d="M36.83,60.42a5.57,5.57,0,0,1,5.57-5.57,31.52,31.52,0,0,1,17.13,4.7c3.33,1.84,6,3.3,11.74,3.3s8.4-1.46,11.73-3.3a31.52,31.52,0,0,1,17.13-4.7,31.53,31.53,0,0,1,17.14,4.7c3.33,1.84,6,3.3,11.74,3.3s8.41-1.46,11.74-3.3a31.46,31.46,0,0,1,17.13-4.7,5.57,5.57,0,1,1,0,11.13c-5.78,0-8.41,1.46-11.74,3.3a33.58,33.58,0,0,1-34.27,0c-3.33-1.84-6-3.3-11.74-3.3s-8.4,1.46-11.73,3.3A31.43,31.43,0,0,1,71.27,74a31.44,31.44,0,0,1-17.14-4.7c-3.33-1.84-6-3.3-11.73-3.3A5.56,5.56,0,0,1,36.83,60.42Zm5.57,51.19a49.78,49.78,0,0,1,20,3.66,60.8,60.8,0,0,0,23.82,4.34A60.76,60.76,0,0,0,110,115.27a49.84,49.84,0,0,1,20-3.66,49.84,49.84,0,0,1,20,3.66,60.8,60.8,0,0,0,23.82,4.34,60.86,60.86,0,0,0,23.83-4.34,49.78,49.78,0,0,1,20-3.66,5.57,5.57,0,0,0,0-11.14,60.8,60.8,0,0,0-23.82,4.34,49.84,49.84,0,0,1-20,3.66,49.84,49.84,0,0,1-20-3.66,60.8,60.8,0,0,0-23.82-4.34,60.8,60.8,0,0,0-23.82,4.34,49.8,49.8,0,0,1-20,3.66,49.78,49.78,0,0,1-20-3.66,60.8,60.8,0,0,0-23.82-4.34,5.57,5.57,0,0,0,0,11.14Zm0,46.57a50,50,0,0,1,20,3.66,60.62,60.62,0,0,0,23.82,4.34A60.58,60.58,0,0,0,110,161.84a50,50,0,0,1,20-3.66,50,50,0,0,1,20,3.66,60.62,60.62,0,0,0,23.82,4.34,60.67,60.67,0,0,0,23.83-4.34,50,50,0,0,1,20-3.66,5.57,5.57,0,1,0,0-11.13,60.62,60.62,0,0,0-23.82,4.34,50,50,0,0,1-20,3.66,50,50,0,0,1-20-3.66,60.62,60.62,0,0,0-23.82-4.34,60.62,60.62,0,0,0-23.82,4.34,50,50,0,0,1-20,3.66,50,50,0,0,1-20-3.66,60.62,60.62,0,0,0-23.82-4.34,5.57,5.57,0,1,0,0,11.13Zm0,48.15c5.77,0,8.4,1.46,11.73,3.3a31.53,31.53,0,0,0,17.14,4.7,31.52,31.52,0,0,0,17.13-4.7c3.33-1.84,6-3.3,11.73-3.3s8.41,1.46,11.74,3.3a33.58,33.58,0,0,0,34.27,0c3.33-1.84,6-3.3,11.74-3.3a5.57,5.57,0,1,0,0-11.13,31.47,31.47,0,0,0-17.13,4.69c-3.33,1.85-6,3.31-11.74,3.31s-8.41-1.46-11.74-3.31a31.54,31.54,0,0,0-17.14-4.69A31.53,31.53,0,0,0,83,199.89c-3.33,1.85-6,3.31-11.73,3.31s-8.41-1.46-11.74-3.31A31.53,31.53,0,0,0,42.4,195.2a5.57,5.57,0,1,0,0,11.13Zm86.87,33.39c-7.26,0-11.25,2.94-14.16,5.09-2.47,1.81-4,2.91-7.56,2.91s-5.09-1.1-7.56-2.91c-2.91-2.15-6.9-5.09-14.16-5.09s-11.25,2.94-14.16,5.09c-2.47,1.81-4,2.91-7.56,2.91s-5.09-1.1-7.55-2.91c-2.92-2.15-6.91-5.09-14.16-5.09a5.57,5.57,0,1,0,0,11.13c3.6,0,5.09,1.1,7.55,2.92,2.92,2.14,6.9,5.08,14.16,5.08s11.25-2.94,14.16-5.08c2.47-1.82,4-2.92,7.56-2.92s5.09,1.1,7.56,2.92c2.91,2.14,6.9,5.08,14.16,5.08s11.24-2.94,14.16-5.08c2.47-1.82,4-2.92,7.56-2.92a5.57,5.57,0,0,0,0-11.13Zm193.42-86.83L258,215v106.1A18.87,18.87,0,0,1,239.13,340H18.87A18.87,18.87,0,0,1,0,321.13V18.87A18.87,18.87,0,0,1,18.87,0H182.32a5.51,5.51,0,0,1,3.94,1.68l70,67.46,0,0a2.39,2.39,0,0,1,.22.23l.16.17.21.28L257,70a4.11,4.11,0,0,1,.24.39l.05.07a5.67,5.67,0,0,1,.67,2.46c0,.08,0,.15,0,.22v54.06l22-21.45.17-.16c.68-.61,16.76-14.87,33.24-13.16,7.46.76,13.72,4.51,18.62,11.14C347.2,124.14,332.66,144.71,322.69,152.89Zm-9.24-5.82-29.2-29.21-7.68,7.48,29.15,29.14Zm-15.76,15.12L268.6,133.1l-104.71,102,28.3,28.3,56.33-54.05a5.39,5.39,0,0,1,.95-.9ZM152.29,273.4l29.48-4.66-23.19-23.19ZM188.35,19.24,189,68l50,0ZM247,225.92l-53.09,51a5.56,5.56,0,0,1-3,1.48l-45,7.12a5.1,5.1,0,0,1-.87.07,5.53,5.53,0,0,1-5.4-6.86l9.94-44.08a6.94,6.94,0,0,1,.25-.81,5.48,5.48,0,0,1,4.32-4.91l93-90.72a5.8,5.8,0,0,1-.11-1.11V79l-63.63,0a5.55,5.55,0,0,1-5.54-5.49L177,11H18.74A7.75,7.75,0,0,0,11,18.74V321.26A7.75,7.75,0,0,0,18.74,329H239.26a7.75,7.75,0,0,0,7.74-7.74ZM323.54,110.5c-3-4.06-6.52-6.25-10.79-6.69-6.9-.72-14.78,3.29-20,6.8l28.55,28.55C326.33,132.83,332,121.89,323.54,110.5Z"/></g></g></svg>